<svg width="850" height="1000" viewBox="0 0 850 1000" fill="none" xmlns="http://www.w3.org/2000/svg">
<path fill-rule="evenodd" clip-rule="evenodd" d="M850 0H0V648.564C40.4072 646.2 64.1516 648.71 71.0428 650.289L107.064 632.642L140.083 653.497L170.601 685.58L191.113 661.518L221.631 667.934L263.155 680.768L297.676 685.58L332.196 645.476L352.708 631.038L363.714 661.518L382.726 667.934L392.231 623.017H406.239L422.749 626.226L446.263 639.059L488.788 603.767L506.798 648.684L531.813 671.143L560.83 696.81L581.342 671.143L596.351 643.872C601.52 640.129 614.361 633.284 624.367 635.851C634.373 638.417 652.217 640.129 659.888 640.663L684.903 597.35L706.916 648.684L737.433 683.976L757.945 661.518C761.614 658.844 769.752 654.459 772.954 658.309C776.156 662.159 798.302 680.233 808.975 688.789L828.487 595.746L838.993 597.35L850 594.409V0ZM850 999.998L0 998.399V1000H850V999.998Z" fill="black"/>
</svg>
